<svg width="202" height="303" viewBox="0 0 202 303" fill="none" xmlns="http://www.w3.org/2000/svg">
<mask id="mask0_1620_230" style="mask-type:alpha" maskUnits="userSpaceOnUse" x="0" y="0" width="202" height="303">
<g clip-path="url(#clip0_1620_230)">
<path d="M126.905 60.4435V61.9213C126.905 62.927 126.905 62.2291 126.905 61.9213C126.774 62.7057 126.592 63.4804 126.36 64.2405C126.239 64.6715 126.078 65.1231 125.917 65.5541C125.917 65.3283 126.32 64.7741 125.917 65.5541C125.513 66.334 125.029 67.155 124.524 67.9349C123.738 69.1253 124.908 67.5244 124.343 68.1607C124.101 68.448 123.838 68.7353 123.576 69.0021C123.314 69.269 123.152 69.4332 122.931 69.6589C122.709 69.8847 121.72 70.6851 122.567 70.0284C121.966 70.4927 121.333 70.9112 120.671 71.2803L119.884 71.7114C119.339 71.9576 119.319 71.9782 119.884 71.7114C119.677 71.8147 119.461 71.8972 119.238 71.9576C118.51 72.2103 117.77 72.4227 117.019 72.5939C116.777 72.5939 115.748 72.7991 116.737 72.5939C116.333 72.5939 115.93 72.5939 115.526 72.6965C114.726 72.7474 113.925 72.7474 113.125 72.6965C112.237 72.6965 114.275 72.9839 112.843 72.6965L111.471 72.3681C111.027 72.245 110.603 72.0808 110.159 71.9371C109.715 71.7934 109.292 71.5266 110.159 71.9371C109.466 71.609 108.792 71.2389 108.142 70.8288C107.819 70.6236 107.516 70.3978 107.214 70.172C106.528 69.6794 108 70.9725 106.992 69.9873C106.346 69.3305 105.7 68.7148 105.115 67.9349C105.68 68.5917 105.115 67.9349 105.115 67.9349L104.369 66.7855L103.925 65.9851C103.925 65.8619 103.259 64.4868 103.663 65.513C103.376 64.7851 103.14 64.0375 102.956 63.2759C102.956 62.968 102.835 62.6601 102.755 62.3523C102.674 62.0444 102.755 61.7366 102.755 62.3523C102.734 62.1133 102.734 61.8729 102.755 61.6339C102.704 60.9028 102.704 60.169 102.755 59.4378C102.755 59.2942 102.977 57.7343 102.755 58.8632L102.936 57.9396C103.109 57.1751 103.325 56.4213 103.582 55.6819C104.026 54.3273 103.118 56.4413 103.804 55.1893C104.026 54.7993 104.228 54.3683 104.45 53.9784L105.075 53.0137C105.196 52.8085 105.842 52.0491 105.236 52.7674C105.722 52.1835 106.241 51.6284 106.79 51.105C106.79 51.105 107.859 50.1609 107.294 50.6124C106.729 51.0639 107.92 50.1814 107.879 50.2019C108.639 49.691 109.435 49.2382 110.26 48.8473C110.058 48.9499 109.393 49.1346 110.26 48.8473C110.704 48.7036 111.128 48.5394 111.572 48.4163L112.479 48.1905C112.479 48.1905 113.932 47.9237 113.186 48.0263C112.439 48.129 113.993 48.0263 113.952 48.0263H115.143H116.353C117.544 48.0263 115.849 47.8416 116.878 48.0263C117.907 48.211 118.673 48.4779 119.561 48.7857C120.933 49.2578 119.057 48.5189 119.823 48.9089L121.236 49.6683L122.002 50.1609L122.729 50.6945C122.305 50.3661 122.325 50.3866 122.729 50.6945C123.132 51.0024 123.778 51.7823 124.323 52.3159C125.291 53.3216 123.859 51.536 124.645 52.7264C124.908 53.0958 125.15 53.4858 125.392 53.8758C125.634 54.2657 125.816 54.6967 126.038 55.0867C126.542 56.0103 125.896 54.471 126.26 55.5793C126.623 56.6876 126.784 57.3649 127.006 58.2885C127.006 58.4732 127.147 59.2942 127.006 58.2885C127.006 58.9452 127.006 59.602 127.127 60.2383C127.127 61.5991 127.659 62.9042 128.604 63.8665C129.55 64.8288 130.833 65.3694 132.171 65.3694C133.509 65.3694 134.792 64.8288 135.738 63.8665C136.684 62.9042 137.215 61.5991 137.215 60.2383C137.109 55.5682 135.616 51.0401 132.934 47.2488C130.251 43.4575 126.504 40.5805 122.184 38.9956C117.907 37.438 113.264 37.2419 108.875 38.4335C104.485 39.625 100.556 42.1477 97.6099 45.666C95.2786 48.4543 93.6434 51.7738 92.8433 55.3426C92.0431 58.9113 92.1016 62.6239 93.0138 66.1647C93.926 69.7055 95.6649 72.97 98.0829 75.6809C100.501 78.3917 103.526 80.4687 106.902 81.7354C110.278 83.0021 113.905 83.4211 117.474 82.9568C121.043 82.4925 124.449 81.1586 127.403 79.0685C130.357 76.9783 132.772 74.1936 134.441 70.9511C136.111 67.7085 136.986 64.1039 136.993 60.4435C136.993 59.0827 136.462 57.7776 135.516 56.8153C134.57 55.853 133.287 55.3125 131.949 55.3125C130.611 55.3125 129.328 55.853 128.383 56.8153C127.437 57.7776 126.905 59.0827 126.905 60.4435V60.4435Z" fill="#211915"/>
<path d="M102.615 56.0923L102.393 11.5547V5.17161L97.3088 10.2616C100.092 10.1788 102.876 10.3023 105.641 10.6311L107.518 10.8363L108.627 10.98C107.477 10.8363 107.901 10.8568 108.627 10.98C110.221 11.2263 111.815 11.5136 113.389 11.8215C117.104 12.5934 120.769 13.5941 124.365 14.818C125.333 15.1464 126.382 15.4953 127.25 15.8648L128.521 16.4189L129.287 16.7473C130.518 17.2194 128.541 16.3984 129.489 16.7473C131.507 17.6299 133.524 18.5945 135.542 19.6618C137.56 20.729 139.577 21.9605 141.595 23.274C142.536 23.9171 143.464 24.6013 144.379 25.3265C144.601 25.4701 146.215 26.7426 145.206 25.9422C145.731 26.3321 146.235 26.7632 146.74 27.1736C148.7 28.8222 150.572 30.5761 152.348 32.4279C153.276 33.3925 154.164 34.3777 155.032 35.4039L156.283 36.8816L156.827 37.5589L157.372 38.2567C157.07 37.8668 157.029 37.8052 157.231 38.0926C160.848 42.9784 163.894 48.275 166.31 53.8757C166.774 54.9635 166.532 54.3683 166.976 55.5177C167.42 56.667 167.682 57.3443 168.005 58.2474C168.65 60.0741 169.236 61.9007 169.76 63.7479C170.935 67.827 171.872 71.9733 172.565 76.1651C174.063 86.0207 174.57 96.0061 174.078 105.966C173.815 112.575 183.903 112.555 184.166 105.966C185.316 76.2061 179.404 44.0035 157.15 22.8635C143.612 10.118 126.201 2.99604 108.184 0.697322C104.584 0.156486 100.947 -0.076937 97.3088 -0.000503151C95.9792 0.0257687 94.7112 0.574796 93.7708 1.53142C92.8304 2.48805 92.2907 3.77795 92.2649 5.13057L92.4868 49.6477V56.0513C92.4868 62.6396 102.575 62.6601 102.575 56.0513L102.615 56.0923Z" fill="#211915"/>
<path d="M178.96 100.814C154.365 100.424 129.771 99.747 105.197 99.6649C94.2221 99.3934 83.2632 100.671 72.6333 103.462C63.216 106.144 54.2364 110.217 45.9811 115.551C36.6011 121.611 28.2989 129.244 21.4272 138.127C20.5131 139.104 20.0034 140.401 20.0034 141.75C20.0034 143.099 20.5131 144.396 21.4272 145.373C22.3727 146.331 23.6532 146.87 24.9882 146.87C26.3232 146.87 27.6038 146.331 28.5492 145.373C39.9021 130.568 55.4208 119.636 73.0369 114.032C82.8359 111.152 93.0011 109.769 103.2 109.927C115.063 109.927 126.906 110.255 138.77 110.44L178.96 111.076C185.436 111.179 185.456 100.917 178.96 100.814V100.814Z" fill="#211915"/>
<path d="M21.9306 137.964C8.3783 155.267 0.685703 176.562 -0.000453796 198.675C-0.498873 219.814 5.62744 240.566 17.492 257.928C24.0897 267.626 32.2796 276.097 41.7029 282.968C42.2752 283.307 42.9076 283.529 43.5641 283.62C44.2206 283.711 44.8883 283.67 45.529 283.498C46.1698 283.326 46.771 283.028 47.2985 282.62C47.8259 282.212 48.2692 281.703 48.603 281.121C48.9369 280.538 49.1547 279.895 49.2441 279.227C49.3335 278.559 49.2928 277.88 49.1242 277.228C48.9556 276.577 48.6624 275.965 48.2614 275.428C47.8604 274.892 47.3595 274.441 46.7872 274.101C31.7096 263.013 20.45 247.374 14.6079 229.405C8.76582 211.436 8.63838 192.051 14.2437 174.004C17.416 163.588 22.435 153.849 29.0527 145.27C29.9681 144.29 30.4784 142.99 30.4784 141.638C30.4784 140.286 29.9681 138.985 29.0527 138.005C28.1046 137.051 26.825 136.516 25.4917 136.516C24.1583 136.516 22.8787 137.051 21.9306 138.005V137.964Z" fill="#211915"/>
<path d="M41.7643 282.968C57.9631 294.042 76.6703 300.732 96.1179 302.404C114.986 304.506 134.066 301.519 151.44 293.743C167.931 286.285 181.651 273.666 190.601 257.723C199.063 242.212 202.938 224.543 201.758 206.843C200.528 187.715 193.971 168.135 181.159 153.809C174.941 146.926 167.328 141.5 158.845 137.906C150.362 134.313 141.213 132.638 132.031 132.997C122.409 133.458 113.025 136.191 104.621 140.979C96.217 145.766 89.0232 152.478 83.6089 160.582C78.3174 168.599 75.0661 177.828 74.1469 187.439C73.2278 197.051 74.6697 206.744 78.343 215.648C81.9121 223.695 87.4913 230.651 94.5251 235.822C101.559 240.993 109.802 244.199 118.432 245.121C127.725 246.083 137.066 243.845 144.96 238.766C152.854 233.686 158.844 226.059 161.972 217.106C163.418 212.58 164.013 207.817 163.727 203.067C163.696 201.716 163.155 200.429 162.216 199.473C161.276 198.518 160.011 197.967 158.683 197.936C157.349 197.947 156.072 198.491 155.128 199.451C154.184 200.411 153.65 201.709 153.639 203.067C154.668 219.486 142.119 232.93 126.422 234.859C112.299 236.604 97.8329 228.702 90.3073 216.757C81.7729 203.149 82.015 184.944 89.3187 170.844C93.1681 163.546 98.6612 157.28 105.349 152.557C112.036 147.834 119.727 144.788 127.794 143.67C135.593 142.665 143.515 143.432 150.988 145.916C158.461 148.401 165.299 152.54 171.01 158.037C182.833 169.366 189.391 186.073 191.307 202.266C193.211 217.458 190.963 232.889 184.811 246.866C178.258 261.238 167.45 273.165 153.901 280.977C125.09 297.725 86.7563 296.144 57.7032 280.792C53.9505 278.796 50.3252 276.561 46.8486 274.101C45.6892 273.432 44.3181 273.25 43.0286 273.595C41.7391 273.94 40.6336 274.785 39.9485 275.949C39.3054 277.132 39.1353 278.521 39.4735 279.828C39.8117 281.136 40.6321 282.26 41.7643 282.968V282.968Z" fill="#211915"/>
</g>
</mask>
<g mask="url(#mask0_1620_230)">
<rect width="202" height="303" fill="#55D4C1"/>
</g>
<defs>
<clipPath id="clip0_1620_230">
<rect width="202" height="303" fill="white"/>
</clipPath>
</defs>
</svg>
